<?xml version="1.0" standalone="no"?>
<!DOCTYPE svg PUBLIC "-//W3C//DTD SVG 20010904//EN"
 "http://www.w3.org/TR/2001/REC-SVG-20010904/DTD/svg10.dtd">
<svg version="1.0" xmlns="http://www.w3.org/2000/svg"
 width="1280.000000pt" height="1280.000000pt" viewBox="0 0 1280.000000 1280.000000"
 preserveAspectRatio="xMidYMid meet">
<g transform="translate(0.000000,1280.000000) scale(0.100000,-0.100000)"
fill="#000000" stroke="none">
<path d="M5978 11085 c-188 -18 -346 -42 -518 -76 -1939 -395 -3429 -1971
-3714 -3929 -61 -419 -61 -941 0 -1360 242 -1662 1361 -3075 2924 -3693 562
-222 1116 -327 1730 -327 738 0 1421 158 2075 480 1238 610 2151 1738 2485
3070 171 682 188 1389 49 2085 -383 1923 -1963 3427 -3904 3715 -334 50 -812
64 -1127 35z m-228 -869 c0 -2 -22 -45 -49 -97 -94 -179 -149 -365 -187 -634
-22 -150 -25 -598 -6 -785 53 -509 163 -982 343 -1472 38 -105 68 -196 66
-202 -9 -26 -150 292 -289 652 -223 580 -467 1309 -631 1887 -103 361 -113
405 -96 416 28 18 224 90 352 130 214 66 497 126 497 105z m1912 -142 c56 -20
153 -56 213 -81 136 -55 478 -229 501 -254 16 -17 15 -19 -7 -28 -13 -5 -68
-25 -122 -46 -193 -73 -391 -211 -606 -420 -450 -438 -853 -1103 -1132 -1869
-78 -211 -88 -235 -89 -195 -1 96 301 981 553 1619 249 632 550 1306 584 1310
0 0 48 -16 105 -36z m-4197 -1261 c54 -246 217 -553 451 -848 112 -141 471
-501 639 -640 282 -233 568 -432 880 -610 191 -109 226 -135 153 -110 -139 48
-739 374 -1273 693 -576 344 -1355 857 -1355 893 0 20 122 232 202 352 132
197 262 362 278 352 4 -3 16 -40 25 -82z m6267 -418 c59 -98 187 -347 235
-458 48 -112 113 -287 113 -303 0 -20 -13 -18 -112 22 -158 63 -397 104 -608
104 -126 0 -376 -26 -536 -55 -552 -102 -1190 -346 -1724 -660 -179 -105 -201
-116 -211 -113 -14 5 104 92 256 189 518 329 1186 706 1800 1016 363 183 705
344 724 341 8 -2 37 -39 63 -83z m-3217 -1184 c3 -5 18 -9 33 -9 15 0 44 -7
66 -16 21 -9 42 -14 46 -11 4 3 13 -2 20 -10 7 -8 20 -15 30 -15 18 0 48 -28
42 -39 -1 -3 6 -7 17 -9 11 -2 31 -14 46 -28 14 -13 31 -24 36 -24 6 0 7 -4 4
-10 -3 -5 3 -10 13 -10 11 0 26 -7 33 -16 12 -14 7 -21 -31 -55 -52 -44 -62
-46 -100 -19 -73 52 -235 110 -307 110 -17 0 -34 4 -37 8 -3 5 4 35 16 68 27
78 56 111 73 85z m-126 -28 c0 -16 -6 -50 -12 -77 l-12 -50 -70 -12 c-87 -15
-163 -43 -240 -89 -32 -20 -59 -34 -60 -33 -1 2 -12 30 -24 63 -21 56 -21 61
-5 70 9 5 29 20 44 32 14 12 37 24 51 28 14 3 29 16 34 28 8 17 17 21 38 19
17 -2 36 3 47 13 16 15 100 31 178 34 29 1 32 -2 31 -26z m21 -183 c0 -5 -4
-10 -10 -10 -5 0 -10 5 -10 10 0 6 5 10 10 10 6 0 10 -4 10 -10z m-23 -36 c9
-23 -11 -38 -27 -19 -7 8 -19 15 -26 15 -17 0 -18 12 -2 28 13 13 46 -1 55
-24z m-88 9 c6 -4 -31 -38 -49 -46 -11 -4 -10 -6 3 -6 14 -1 8 -11 -26 -46
-25 -25 -53 -45 -62 -45 -14 0 -15 3 -5 15 16 19 3 19 -30 0 -27 -15 -54 -21
-31 -6 11 7 11 13 -3 32 -20 30 -20 40 1 32 11 -4 14 -3 9 5 -4 7 -2 12 3 12
6 0 11 -4 11 -10 0 -5 5 -10 11 -10 6 0 8 7 5 16 -3 8 0 22 8 30 19 19 23 18
29 -6 3 -11 1 -20 -4 -20 -5 0 -9 -7 -9 -15 0 -22 18 -18 25 5 12 39 58 77 85
72 14 -3 27 -6 29 -9z m174 10 c9 -9 -42 -55 -54 -48 -15 10 -10 33 9 44 20
12 36 14 45 4z m106 -24 c20 -20 37 -29 47 -25 12 4 14 2 10 -9 -3 -8 -9 -22
-12 -30 -3 -8 -1 -15 5 -15 6 0 11 9 11 19 0 11 5 23 10 26 6 3 10 -1 10 -9 0
-9 6 -16 13 -16 16 0 57 -33 57 -47 0 -5 -15 -16 -34 -24 -31 -14 -37 -14 -65
0 -35 19 -78 70 -48 58 9 -3 19 -1 23 5 5 8 -3 9 -25 5 -28 -6 -32 -4 -29 13
2 14 -5 25 -21 33 -33 16 -37 35 -9 40 13 2 24 5 25 6 1 0 15 -13 32 -30z
m-655 -29 l27 -50 -45 -51 c-44 -48 -136 -215 -136 -245 0 -18 -12 -18 -55 3
-19 9 -37 25 -41 35 -4 13 -11 17 -25 13 -15 -5 -19 -1 -19 19 0 16 6 26 15
26 8 0 15 4 15 10 0 5 11 12 25 16 35 9 50 30 30 42 -11 6 -16 19 -13 38 2 25
7 29 29 26 19 -2 28 3 37 22 9 20 8 25 -5 30 -12 5 -13 9 -3 22 9 10 16 12 24
4 18 -18 36 -11 36 15 0 14 7 28 15 31 8 4 15 12 15 19 0 13 14 23 36 24 6 1
23 -22 38 -49z m391 10 c3 -5 1 -10 -4 -10 -6 0 -11 5 -11 10 0 6 2 10 4 10 3
0 8 -4 11 -10z m195 6 c0 -3 -4 -8 -10 -11 -5 -3 -10 -1 -10 4 0 6 5 11 10 11
6 0 10 -2 10 -4z m467 -33 c14 9 53 -22 53 -42 0 -9 9 -27 20 -39 11 -12 20
-25 20 -31 0 -10 30 -25 44 -22 5 1 6 -5 3 -12 -3 -8 -1 -19 5 -25 8 -8 8 -15
-1 -26 -8 -9 -10 -28 -5 -50 7 -41 15 -45 29 -15 6 12 15 21 20 19 11 -2 11
-4 -1 -34 -6 -17 -4 -18 20 -12 26 6 26 6 15 -16 -14 -25 -13 -77 2 -92 20
-21 6 -26 -71 -26 -79 0 -80 0 -86 28 -28 126 -85 243 -157 320 -34 35 -33 39
28 71 27 14 41 17 46 10 4 -7 11 -9 16 -6z m-612 -2 c7 -13 -62 -34 -83 -26
-13 6 -8 10 23 20 51 17 53 17 60 6z m124 -5 c23 -8 31 -15 23 -20 -16 -10
-84 13 -77 25 7 11 11 11 54 -5z m-469 -46 c0 -5 -5 -10 -11 -10 -5 0 -7 5 -4
10 3 6 8 10 11 10 2 0 4 -4 4 -10z m4 -30 c14 -5 26 -14 26 -19 0 -6 -6 -8
-14 -5 -8 3 -23 -3 -34 -14 -20 -20 -62 -35 -62 -22 0 8 49 70 55 70 2 0 15
-4 29 -10z m828 -37 c21 -20 38 -41 38 -46 0 -6 13 -31 29 -57 16 -27 27 -51
24 -54 -17 -17 -51 -1 -89 41 -34 37 -46 45 -56 35 -9 -9 -23 -1 -62 36 -28
25 -52 50 -54 54 -5 11 25 3 43 -12 9 -7 15 -9 14 -4 -6 24 15 44 44 44 22 0
42 -10 69 -37z m-813 -70 c-65 -69 -86 -82 -81 -50 2 9 -1 17 -6 17 -13 0 -24
-29 -16 -41 8 -13 -22 -22 -51 -15 -24 6 -36 36 -15 36 5 0 16 13 24 28 12 23
21 28 45 26 17 -1 35 4 42 12 6 8 17 14 23 14 6 0 17 9 24 20 8 13 23 20 44
20 l31 0 -64 -67z m-172 -109 c3 -8 1 -20 -4 -25 -7 -7 -12 -2 -15 15 -6 28 9
36 19 10z m1108 -15 c12 -36 21 -149 12 -149 -5 0 -21 9 -35 21 l-27 21 -3
-22 c-3 -21 -4 -21 -17 -3 -8 10 -15 26 -15 36 0 9 -4 17 -9 17 -4 0 -8 18 -8
40 0 22 3 40 8 40 4 0 14 3 23 6 10 4 17 -2 22 -20 3 -14 10 -26 15 -26 12 0
11 17 -1 25 -5 3 -10 12 -10 18 0 19 39 15 45 -4z m-1057 -5 c11 7 9 -53 -3
-91 -8 -27 -55 -33 -55 -8 0 18 -36 20 -43 3 -3 -7 -5 1 -6 17 0 17 4 39 8 50
8 19 8 19 20 -3 13 -25 31 -21 31 7 0 24 22 45 31 30 4 -7 11 -9 17 -5z m-224
-64 c14 -5 24 -15 22 -22 -1 -7 -1 -10 1 -5 3 4 11 7 18 7 10 0 13 -26 14
-108 0 -71 7 -132 20 -179 21 -81 21 -80 -49 -83 -52 -3 -62 -1 -55 10 3 6 -4
24 -15 41 -12 16 -20 33 -16 36 3 3 0 15 -7 27 -7 11 -17 48 -22 81 -6 34 -16
59 -22 58 -6 -1 -17 4 -23 12 -14 17 -7 19 18 7 10 -5 26 -4 39 3 20 10 21 14
9 37 -12 23 -12 30 1 47 8 12 11 26 8 31 -8 13 26 13 59 0z m-94 -9 c0 -5 -7
-11 -15 -15 -15 -5 -20 5 -8 17 9 10 23 9 23 -2z m1805 -82 c458 -54 1179
-183 1838 -330 405 -90 978 -236 995 -253 17 -17 -64 -397 -130 -611 -46 -149
-108 -307 -121 -302 -6 2 -26 32 -45 67 -186 353 -556 660 -1117 931 -478 230
-949 374 -1602 490 -69 12 -120 25 -117 30 6 11 44 8 299 -22z m-1515 7 c0 -3
-4 -8 -10 -11 -5 -3 -10 -1 -10 4 0 6 5 11 10 11 6 0 10 -2 10 -4z m-3282 -65
c266 -192 654 -324 1127 -385 232 -30 433 -39 750 -33 391 7 591 27 960 93
198 35 242 40 215 25 -56 -33 -576 -148 -1065 -235 -446 -80 -1007 -161 -1456
-211 -300 -33 -539 -53 -539 -44 0 2 -7 40 -15 84 -22 110 -33 196 -50 360
-17 165 -20 395 -5 395 6 0 41 -22 78 -49z m4598 32 c16 -6 16 -7 -2 -20 -10
-7 -13 -13 -5 -13 7 0 11 -8 9 -17 -2 -10 -12 -18 -22 -18 -27 0 -31 -22 -7
-34 18 -10 19 -13 5 -39 -7 -15 -14 -37 -14 -50 0 -19 4 -22 20 -17 11 3 20 2
20 -3 0 -15 -21 -20 -57 -14 -31 4 -33 3 -31 -22 2 -24 18 -38 18 -15 0 5 4 8
8 5 13 -8 2 -64 -14 -70 -7 -3 -16 -1 -19 4 -4 6 -13 10 -22 10 -11 0 -14 -6
-9 -24 3 -14 2 -28 -4 -31 -5 -3 -10 -19 -10 -36 0 -22 -5 -29 -20 -29 -11 0
-20 -4 -20 -10 0 -18 -19 -11 -55 21 l-35 31 39 72 c44 81 71 187 71 277 l0
62 69 -7 c38 -3 77 -9 87 -13z m-1336 -43 c0 -5 -4 -10 -10 -10 -5 0 -10 5
-10 10 0 6 5 10 10 10 6 0 10 -4 10 -10z m1050 0 c0 -5 -4 -10 -10 -10 -5 0
-10 5 -10 10 0 6 5 10 10 10 6 0 10 -4 10 -10z m-1336 -9 c3 -5 -1 -14 -8 -20
-16 -13 -32 2 -21 19 8 12 22 13 29 1z m1376 -1 c0 -5 -4 -10 -9 -10 -6 0 -13
5 -16 10 -3 6 1 10 9 10 9 0 16 -4 16 -10z m-1045 -57 c5 -17 2 -23 -9 -23
-25 0 -18 -27 8 -34 27 -7 37 -29 40 -87 1 -36 -1 -39 -25 -39 -22 0 -29 8
-44 47 -15 38 -20 43 -25 28 -9 -27 -23 -1 -15 28 15 47 50 116 56 109 4 -4
10 -17 14 -29z m1005 6 c-14 -25 -5 -39 25 -39 13 0 27 -5 30 -11 12 -18 -5
-59 -35 -86 -25 -22 -29 -32 -25 -57 7 -38 -12 -66 -45 -68 -14 -1 -30 -6 -37
-11 -7 -5 -17 -6 -22 -2 -14 8 -71 -35 -71 -53 0 -11 3 -12 13 -3 8 6 17 8 20
4 4 -3 18 4 32 17 22 21 25 21 31 6 7 -18 -33 -69 -47 -61 -4 3 -11 -4 -14
-16 -5 -14 -13 -19 -26 -16 -10 3 -19 1 -19 -4 0 -4 -7 -6 -15 -3 -8 4 -15 1
-15 -6 0 -6 -4 -8 -10 -5 -5 3 -10 -2 -10 -11 0 -10 -3 -15 -6 -11 -3 3 -15
-2 -26 -12 -18 -17 -22 -17 -49 -4 -30 15 -35 24 -21 37 4 4 7 20 7 34 0 22 7
29 35 39 30 10 37 9 48 -5 14 -18 42 -17 54 1 10 16 0 27 -23 27 -10 0 -19 4
-19 9 0 10 29 23 39 17 3 -2 22 19 41 47 35 50 70 77 57 43 -5 -14 -2 -17 16
-14 25 3 36 50 17 73 -10 11 -8 25 6 60 11 25 24 45 31 45 6 0 9 9 6 20 -6 22
14 53 28 44 5 -3 5 -14 -1 -25z m70 -5 c0 -23 -19 -25 -30 -4 -14 26 -4 45 16
29 8 -6 14 -17 14 -25z m-1140 6 c0 -5 -4 -10 -10 -10 -5 0 -10 5 -10 10 0 6
5 10 10 10 6 0 10 -4 10 -10z m1380 -66 c0 -16 -26 -19 -35 -4 -3 6 -4 14 0
20 8 13 35 1 35 -16z m-1204 -159 c16 -28 40 -51 61 -62 33 -15 34 -17 14 -24
-26 -10 -60 2 -85 30 -10 11 -22 18 -26 16 -18 -11 -29 22 -19 58 12 44 20 41
55 -18z m-183 -27 c37 -63 104 -136 169 -184 l58 -42 -33 -40 c-41 -51 -50
-55 -78 -31 -12 10 -26 19 -31 19 -4 0 -8 7 -8 15 0 8 -4 15 -9 15 -5 0 -16
16 -23 36 -9 26 -20 37 -40 41 -19 4 -28 12 -28 25 0 11 -9 22 -20 25 -11 3
-20 9 -20 14 0 5 -9 9 -21 9 -16 0 -19 4 -14 20 8 25 -10 50 -36 50 -22 0 -25
15 -6 27 12 8 96 40 109 42 3 1 17 -18 31 -41z m71 26 c4 -9 4 -19 1 -22 -7
-8 -35 19 -29 29 8 14 21 11 28 -7z m148 -114 c16 0 19 -5 14 -25 -4 -14 -2
-25 4 -25 5 0 10 -4 10 -10 0 -25 -46 -5 -93 41 -38 37 -48 52 -38 59 9 5 27
-1 49 -16 19 -13 44 -24 54 -24z m888 -49 l34 -44 -30 -23 c-16 -13 -32 -24
-35 -24 -4 0 -9 -10 -12 -22 -4 -12 -9 -19 -13 -16 -3 4 -16 -4 -29 -17 -12
-14 -25 -22 -28 -18 -4 3 -11 -6 -16 -21 -7 -16 -18 -26 -31 -26 -11 0 -23 -7
-27 -16 -4 -11 -13 -13 -34 -9 -24 6 -30 3 -38 -18 -10 -27 -25 -34 -81 -39
-34 -3 -35 -2 -42 42 -12 78 -10 100 9 100 41 0 205 92 265 149 35 33 66 56
69 53 3 -4 21 -27 39 -51z m-745 37 c28 -13 30 -19 13 -36 -8 -8 -8 -15 1 -26
15 -18 6 -37 -14 -29 -10 3 -15 -1 -15 -12 0 -12 -5 -15 -22 -9 -32 9 -34 12
-20 34 17 27 15 50 -2 27 -14 -18 -14 -18 -19 0 -4 16 -6 15 -12 -4 -4 -13
-11 -23 -16 -23 -12 0 -11 17 1 25 6 3 10 13 10 21 0 9 -5 12 -11 8 -7 -4 -10
-1 -7 7 3 9 15 13 32 11 19 -3 26 0 22 7 -9 15 26 14 59 -1z m861 -85 c474
-480 1379 -1603 1849 -2293 l57 -85 -53 -48 c-189 -170 -683 -497 -710 -470
-5 5 -3 39 6 83 22 110 30 317 16 440 -29 258 -86 475 -198 760 -201 511 -542
1068 -938 1530 -126 148 -150 180 -135 180 6 0 54 -44 106 -97z m-778 46 c2
-5 21 -9 43 -9 32 0 39 -3 37 -17 -2 -14 4 -18 32 -18 24 0 35 5 35 15 0 10
12 16 34 18 19 2 40 10 48 18 8 8 20 14 27 14 21 0 15 -39 -10 -59 -20 -15
-21 -20 -9 -25 23 -8 1 -46 -27 -46 -12 0 -36 -5 -53 -11 -44 -16 -141 -3
-167 23 -19 19 -19 20 -1 33 17 13 16 14 -9 24 -30 11 -36 26 -15 34 9 4 8 8
-3 17 -12 9 -10 10 10 4 14 -4 27 -11 28 -15z m-63 -148 c48 -14 102 -20 173
-20 l102 -1 0 -75 0 -75 -57 -2 c-143 -4 -180 2 -265 43 -10 5 -31 9 -48 9
-23 0 -33 6 -40 24 -5 13 -14 26 -21 28 -9 3 -4 18 16 52 23 36 34 46 50 42
11 -3 52 -14 90 -25z m-206 -73 c-64 -123 -584 -771 -986 -1230 -316 -361
-695 -768 -922 -992 -108 -106 -122 -117 -138 -105 -116 88 -319 278 -441 412
-118 131 -153 177 -146 188 3 5 31 9 62 9 31 0 102 7 157 15 452 68 982 350
1535 815 191 160 561 534 730 738 133 160 178 204 149 150z m541 -178 c31
-345 35 -1295 10 -1890 -18 -415 -62 -1061 -75 -1097 -6 -18 -279 -17 -461 2
-210 21 -415 56 -421 71 -2 7 15 30 39 50 448 391 749 1173 853 2214 9 85 18
301 22 479 6 334 15 379 33 171z"/>
<path d="M6656 6873 c4 -18 2 -22 -10 -17 -9 3 -16 1 -16 -5 0 -6 15 -10 35
-8 19 1 35 4 35 7 -1 14 -19 32 -28 26 -6 -3 -13 0 -16 6 -3 7 -3 3 0 -9z"/>
<path d="M6757 6806 c-6 -15 44 -66 64 -66 12 0 -33 72 -48 77 -6 2 -13 -3
-16 -11z"/>
<path d="M5690 6360 c0 -5 7 -10 16 -10 8 0 12 5 9 10 -3 6 -10 10 -16 10 -5
0 -9 -4 -9 -10z"/>
<path d="M6886 6205 c-16 -12 -17 -15 -4 -15 9 0 18 7 22 15 7 18 6 18 -18 0z"/>
<path d="M5740 6049 c0 -5 5 -7 10 -4 6 3 10 8 10 11 0 2 -4 4 -10 4 -5 0 -10
-5 -10 -11z"/>
<path d="M6935 5891 c-3 -5 -1 -12 5 -16 5 -3 10 1 10 9 0 18 -6 21 -15 7z"/>
<path d="M6305 5881 c-6 -11 9 -23 19 -14 9 9 7 23 -3 23 -6 0 -12 -4 -16 -9z"/>
<path d="M6476 5881 c-4 -7 -5 -15 -2 -18 9 -9 19 4 14 18 -4 11 -6 11 -12 0z"/>
</g>
</svg>
